<?xml version="1.0" encoding="utf-8"?>
<!-- Generator: Adobe Illustrator 25.0.0, SVG Export Plug-In . SVG Version: 6.00 Build 0)  -->
<svg version="1.1" id="katman_1" xmlns="http://www.w3.org/2000/svg" xmlns:xlink="http://www.w3.org/1999/xlink" x="0px" y="0px"
	 viewBox="0 0 3931.7 2884" style="enable-background:new 0 0 3931.7 2884;" xml:space="preserve">
<style type="text/css">
	.st0{fill:#F68536;}
	.st1{fill:#9D5025;}
</style>
<path class="st0" d="M1278.4,2163.7l-241.3,55V656.2l241.3,55.2V2163.7"/>
<path class="st0" d="M1579.4,2256l-301,85.5V535.6l301,85.4V2256 M1965.6,2350.7L1579.4,2492V385.1l386.2,141.3V2350.7
	 M2998.1,2168.4l-1032.5,516.3V192l1032.5,516.3V2168.4"/>
<path class="st1" d="M1759.7,294.9L1965.6,192v2492.7l-205.8-102.9V294.9 M1420.1,464.7l159.3-79.7v2106.5l-159.3-79.7V464.7
	 M1151.4,599.1l126.9-63.5v1805.5l-126.9-63.5V599.1 M1037.1,656.2L933.6,708v1460.8l103.5,51.7V656.2"/>
</svg>
